<svg xmlns="http://www.w3.org/2000/svg" id="Layer_1" data-name="Layer 1" viewBox="492.85 485.44 1009.02 1029.05"><defs><style>.cls-1{fill:#010101;}.cls-2{fill:#e8b695;}.cls-3{fill:#f3e4dc;}.cls-4{fill:#df8063;}.cls-5{fill:#eba08b;}.cls-6{fill:#ea5836;}.cls-7{fill:#e53c41;}.cls-8{fill:#b42c38;}</style></defs><path class="cls-1" d="M1187.35,593.18l-11.1,11.52a1.14,1.14,0,0,0-.19,1.31q43.18,81.78.91,164.28a1.85,1.85,0,0,0,.52,2.33,327.89,327.89,0,0,1,44.18,39.93c20.77,22.54,35.13,54.1,32.29,84.59-2.21,23.87-12.82,44.24-29.64,61.39a1.66,1.66,0,0,0-.44,1.51,166.36,166.36,0,0,1,3.42,40.89q1.38,6.2,6.66,19,6.8,16.38,4.65,40.63c-2.75,30.88-19.09,57-42.17,76.86a.32.32,0,0,0,.19.58c8.41.65,36.32,3.46,39.93,10.57a3.43,3.43,0,0,1-1.34,4.22,27.92,27.92,0,0,1-10,4.33,196.32,196.32,0,0,1-27.18,4.3q-43.58,3.9-68.52,5-125.61,5.47-254.14,0-10.12-.42-33.86-2.06c-22.59-1.56-44.12-3.25-63.73-7.06a40.06,40.06,0,0,1-12.12-4.29,3.81,3.81,0,0,1-1.5-5.12c3.49-6.56,30.17-9,37.86-9.15a.49.49,0,0,0,.34-.83q-8.25-8.57-12-12.77c-21.89-24.87-33.12-56.53-28.78-89.74a139,139,0,0,1,9.82-28.77,5.58,5.58,0,0,0,.53-2.62,193.76,193.76,0,0,1,2.94-43.8,2.76,2.76,0,0,0-.46-2.08c-2.11-3.08-5.7-6.35-8.39-9.79-23.52-30.13-26.11-68.91-9.41-103.28a152.63,152.63,0,0,1,29.52-41.5A332.37,332.37,0,0,1,822.79,772a1.31,1.31,0,0,0,.37-1.69,167.87,167.87,0,0,1-13.57-131.06q4.3-14.14,13.66-33.51a1.35,1.35,0,0,0-.23-1.47l-10.53-11.37q-19.17-25.4-12.21-55.07a67.73,67.73,0,0,1,93.63-46.44q14.69,6.56,29.57,24a1.23,1.23,0,0,0,1.39.36q69.15-26.37,139.79-3.64,2.73.86,11,3.67a1,1,0,0,0,1.19-.37c24.47-33,69.34-40.64,100.75-13.38q25.21,21.9,23.69,53.3Q1200.34,575.44,1187.35,593.18ZM817.17,521.36c-17.31,24.15-10.3,55.51,10.89,74.36a.63.63,0,0,0,.88-.07l0,0,11.64-16a1.49,1.49,0,0,0-.21-2,41.06,41.06,0,0,1-13-23.31q1.91-11.37,4.24-16.66c3.79-8.63,12.8-16.35,22.24-19.09q23.31-6.78,40,11.87a1,1,0,0,0,1.21.19l19.39-11.21a.23.23,0,0,0,.09-.31l0,0a67.45,67.45,0,0,0-15.78-14.18q-29.75-19.51-61.84-2.92Q825.15,508,817.17,521.36Zm354.38,32.56A32.16,32.16,0,0,1,1159,576.68a1.77,1.77,0,0,0-.35,2.39l12.28,17.28a.39.39,0,0,0,.54.09l0,0A63.26,63.26,0,0,0,1192.13,555q1.65-16.62-8.19-32.21a56.63,56.63,0,0,0-20.64-20.37c-26.68-15.07-59-8.11-77.68,16.81a.74.74,0,0,0,.15,1,.39.39,0,0,0,.11.06l19.25,10.06a1.32,1.32,0,0,0,1.55-.25,58.33,58.33,0,0,1,5-4.85C1137.25,505.94,1171.3,521.12,1171.55,553.92ZM834.14,606.81A146.83,146.83,0,0,0,817.36,645q-14.5,50.84,3.71,99.21a144.71,144.71,0,0,0,55.27,70.34,3,3,0,0,1,.79,4.15,3,3,0,0,1-.62.67q-3.81,3-8.49.17C852.17,809.71,840.13,795,829.39,780a1.14,1.14,0,0,0-1.57-.27,230.15,230.15,0,0,0-47.93,44.33c-28.77,35.44-36.31,85-4.17,121.44A101.91,101.91,0,0,0,813,971.89a4.54,4.54,0,0,0,2.22.32l9.19-1a91.06,91.06,0,0,1,44.55,6.54q10.07,4.08,11.3,4.34a7.77,7.77,0,0,0,2.15.14c25.48-1.86,49.82-16.55,53.82-43.91q2-14.45-5.43-25.94c-8.15-12.61-21.46-18.9-35.71-21.76-20.33-4.08-49.44-10-54.73-33.75a25.5,25.5,0,0,1-.32-9.42,3.54,3.54,0,0,1,3.89-2.91c3.66.36,4.65,3.08,4.87,6.9q.74,13.35,13.54,19.66a104.34,104.34,0,0,0,22.33,8,.77.77,0,0,0,.92-.58,1.11,1.11,0,0,0,0-.19A60.63,60.63,0,0,1,899,837.65q23.52-23.6,57.72-18.63,26.17,3.79,42.87,23.24a.79.79,0,0,0,1.11.09l.08-.07c16.05-17.57,37-26.29,61-23.84q24.26,2.47,41.46,21.3,11.07,16.71,10.56,38.56a.59.59,0,0,0,.58.61l.15,0c13.6-3.44,30.88-7.23,35.58-22.83,1-3.13.51-5.94,1.45-9a3.92,3.92,0,0,1,4.92-2.59,4.12,4.12,0,0,1,.63.25l.3.16a6.13,6.13,0,0,1,3.25,6.5q-3.82,22.36-23.83,30.06c-26.35,10.13-49.79,7.95-65.4,27.73q-10.52,13.32-7.15,29.71c4,26.81,27.58,40.07,52.58,43.63a4.27,4.27,0,0,0,2.39-.33c16-7,30.81-12.58,48.56-11.5q8.91.54,15,1.29a5.65,5.65,0,0,0,2.35-.19c11.1-3.16,21.94-11.11,30.93-18.86,25.33-21.86,34.9-55.12,26.13-87.07-5.58-20.33-18.69-40.6-34.28-55.7a339.67,339.67,0,0,0-35.75-30.23,1.34,1.34,0,0,0-1.89.28l0,0A154.84,154.84,0,0,1,1136,816a38.76,38.76,0,0,1-6.55,4.23,6,6,0,0,1-6.32-.83l-.44-.36a2.79,2.79,0,0,1,.17-4.47c25.23-17.54,44.86-40.33,55.36-69.08,7.34-20.06,11.35-40.09,10.59-61.54a160.39,160.39,0,0,0-23.73-78.66q-27.07-46-70.46-70.46c-38.44-21.64-87.07-29.16-131.2-20.86q-62.65,11.81-107.16,60.61A142.16,142.16,0,0,0,834.14,606.81Zm52.12-70.88a.44.44,0,0,0,.12-.62l-.06-.08c-10.17-9.53-21.61-13.21-34.53-5.94-15.73,8.84-19.23,28.28-5.67,40.87a1.49,1.49,0,0,0,2.1-.08l0,0A198.39,198.39,0,0,1,886.26,535.93Zm228.27-.37,38.91,34.77a.38.38,0,0,0,.53,0l.35-.41c9.94-11.1,9.57-27.63-.82-36.93h0l-1.84-1.64c-10.39-9.28-26.86-7.81-36.78,3.29l-.36.41A.38.38,0,0,0,1114.53,535.56ZM943.73,947.72l-6.82,15.44a2.3,2.3,0,0,0,.53,2.62q29.43,27.35,61.53,42.71a2.59,2.59,0,0,0,2.18,0,196.67,196.67,0,0,0,61.78-43.76,1.77,1.77,0,0,0,.24-2.15c-15.43-25.3-10.9-56,15.95-72.07A75.69,75.69,0,0,1,1104,881a1.58,1.58,0,0,0,1.27-1.54c.46-24.8-9.66-44.2-35.39-50.28q-33.22-8.43-58.5,15.39a122.18,122.18,0,0,0-9.15,9.56,2.32,2.32,0,0,1-3.27.28,1.88,1.88,0,0,1-.25-.24,141.44,141.44,0,0,0-10.18-10.52c-18.77-17.6-49.11-22.78-71.63-8.87q-23.25,14.33-22.2,45.59a1.16,1.16,0,0,0,1,1.1C928.4,886.11,953.59,912.89,943.73,947.72ZM783.22,965.91,780.79,994a.66.66,0,0,0,.61.71.67.67,0,0,0,.57-.24,61.57,61.57,0,0,1,19.84-16.15.56.56,0,0,0,.24-.74.61.61,0,0,0-.19-.2L784,965.57a.49.49,0,0,0-.66.12A.58.58,0,0,0,783.22,965.91Zm413.15,11.77a85.5,85.5,0,0,1,21.4,16.66.64.64,0,0,0,.91,0,.63.63,0,0,0,.21-.56L1216.2,966a.76.76,0,0,0-.83-.69.71.71,0,0,0-.41.17,85.36,85.36,0,0,1-18.55,11.11.63.63,0,0,0-.31.84A.69.69,0,0,0,1196.37,977.68ZM907,986.17l-14.59,4.15a.43.43,0,0,0-.28.53.46.46,0,0,0,.13.21c30.47,24.87,49.62,62.06,45.13,102a93.79,93.79,0,0,1-20.68,42.62.39.39,0,0,0,0,.56.39.39,0,0,0,.28.09,1109.88,1109.88,0,0,1,166.42.24.24.24,0,0,0,.25-.22.23.23,0,0,0-.07-.19,84.72,84.72,0,0,1-19.9-36.43c-8.37-41.53,11.14-83.14,43.62-108.84a.43.43,0,0,0,.07-.6.44.44,0,0,0-.23-.15l-14-4.14a84.54,84.54,0,0,1-15.31-7.93,39.27,39.27,0,0,1-7.37-6.71.7.7,0,0,0-1-.1l0,.05a224,224,0,0,1-57.88,42.35c-7.88,4-11.54,5.6-19,2.06-22.59-10.72-43.9-27-62.05-43.39a1,1,0,0,0-1.27,0A83.32,83.32,0,0,1,907,986.17Zm-91.29-4c-16.79,5-33,20.93-39.58,36.5-12.75,30.1-5.06,64.69,13.53,90.58,24.06,33.5,71.41,58,108.83,29.74,12.05-9.11,21.06-19,25.81-33,13.89-35.34-4.22-77.9-30.58-101.63C872.58,985.29,843.81,974.88,815.74,982.2Zm259.89,123.61c9.14,27.86,37.53,46.62,66.3,45.33q10.46-.48,22.9-5.67c34.81-14.52,61.81-48.74,64.69-87.26,2.4-32.14-10.53-58.37-39.21-73a41.88,41.88,0,0,0-7.52-2.86q-19-5.89-39.17.32a98.17,98.17,0,0,0-44.82,28.65q-24.54,27.75-28,63.4A63,63,0,0,0,1075.63,1105.81Z"/><path class="cls-2" d="M827.42,554.28q-2.82-7.34-5.69-13.34-2.21-4.63-4.56-19.58,8-13.35,19.75-19.42,32.1-16.6,61.84,2.92A67.45,67.45,0,0,1,914.54,519a.23.23,0,0,1,0,.32l0,0-19.39,11.21a1,1,0,0,1-1.21-.19q-16.67-18.66-40-11.87c-9.44,2.74-18.45,10.46-22.24,19.09Q829.32,542.92,827.42,554.28Z"/><path class="cls-2" d="M1183.94,522.77q-3.69,11.41-8.15,21.89-.4,1-1.57,4.92a7.89,7.89,0,0,1-2.67,4.34c-.25-32.8-34.3-48-59.88-28.66a58.33,58.33,0,0,0-5,4.85,1.32,1.32,0,0,1-1.55.25l-19.25-10.06a.73.73,0,0,1-.33-1l.07-.11c18.64-24.92,51-31.88,77.68-16.81A56.63,56.63,0,0,1,1183.94,522.77Z"/><path class="cls-3" d="M1165.12,605.27l.68,19.86a3,3,0,0,1-.12,1.07,1.14,1.14,0,0,1-1.61,0,1.2,1.2,0,0,1-.25-.34,192.06,192.06,0,0,0-28.37-42.42,126.29,126.29,0,0,0-18.85-17.72c-31.15-23.61-64.36-37-103.4-39.78q-50.25-3.56-97.67,18.45c-25.27,11.71-46.07,30.73-63.35,52.45-6,7.58-11.54,18-16.66,26.67q-.87,1.5-2.67.6a41.07,41.07,0,0,0,1.29-17.35,142.16,142.16,0,0,1,22.16-32.25Q900.81,525.75,963.46,514c44.13-8.3,92.76-.78,131.2,20.86Q1138.05,559.23,1165.12,605.27Z"/><path class="cls-4" d="M817.17,521.36q2.34,14.94,4.56,19.58,2.88,6,5.69,13.34a41.06,41.06,0,0,0,13,23.31,1.49,1.49,0,0,1,.21,2l-11.64,16a.62.62,0,0,1-.87.13l0,0C806.87,576.87,799.86,545.51,817.17,521.36Z"/><path class="cls-4" d="M1171.55,553.92a7.89,7.89,0,0,0,2.67-4.34q1.17-3.95,1.57-4.92,4.45-10.49,8.15-21.89,9.84,15.6,8.19,32.21a63.26,63.26,0,0,1-20.66,41.43.4.4,0,0,1-.56,0l0,0-12.28-17.28a1.77,1.77,0,0,1,.35-2.39A32.16,32.16,0,0,0,1171.55,553.92Z"/><path class="cls-5" d="M886.26,535.93a198.39,198.39,0,0,0-38,34.11,1.49,1.49,0,0,1-2.09.16l0,0c-13.56-12.59-10.06-32,5.67-40.87,12.92-7.27,24.36-3.59,34.53,5.94a.46.46,0,0,1,0,.64Z"/><path class="cls-2" d="M1165.8,625.13c9.62,57.83-12.14,111.5-59,146.81a144.46,144.46,0,0,1-55.91,26.18q-15,3.38-24.44,5c-28.84,4.85-59.53.1-86.77-8.22-39.15-12-74.23-39.78-92.57-76.76q-11.4-23-14.33-44.82-2.85-21.18,0-49.11,1.8.9,2.67-.6c5.12-8.71,10.64-19.09,16.66-26.67,17.28-21.72,38.08-40.74,63.35-52.45q47.41-22,97.67-18.45c39,2.77,72.25,16.17,103.4,39.78a126.29,126.29,0,0,1,18.85,17.72,192.06,192.06,0,0,1,28.37,42.42,1.15,1.15,0,0,0,1.53.54,1.31,1.31,0,0,0,.33-.25A3,3,0,0,0,1165.8,625.13ZM938.94,662c11.19-1.3,19.13-12.14,17.73-24.21S945.07,617,933.88,618.3s-19.12,12.13-17.72,24.21S927.76,663.32,938.94,662ZM1063,662c11.44.24,20.92-9.33,21.17-21.37s-8.81-22-20.25-22.23-20.92,9.33-21.17,21.37S1051.59,661.79,1063,662Zm-63.85,131a96.89,96.89,0,0,0,34.35-5.46c27.66-10,47.07-36.48,44-66.26-4-38.28-40.11-62.11-76.59-62.59s-73.25,22.39-78.2,60.57C918.86,749,937.57,776,965,786.7A96.81,96.81,0,0,0,999.18,793.06Z"/><path class="cls-5" d="M1114.53,535.56a.38.38,0,0,1,0-.53l.36-.41c9.92-11.1,26.39-12.57,36.78-3.29l1.84,1.64c10.39,9.29,10.77,25.83.85,36.93h0l-.35.41a.38.38,0,0,1-.53,0Z"/><path class="cls-6" d="M812.49,592.94,823,604.31a1.35,1.35,0,0,1,.23,1.47q-9.35,19.37-13.66,33.51a167.87,167.87,0,0,0,13.57,131.06,1.31,1.31,0,0,1-.37,1.69,332.37,332.37,0,0,0-36.65,31.54,152.63,152.63,0,0,0-29.52,41.5c-16.7,34.37-14.11,73.15,9.41,103.28,2.69,3.44,6.28,6.71,8.39,9.79a2.76,2.76,0,0,1,.46,2.08,193.76,193.76,0,0,0-2.94,43.8,5.58,5.58,0,0,1-.53,2.62,139,139,0,0,0-9.82,28.77q-6,5-12,9.72c-19.63,15.56-38,33-54.68,48.41q-8.18,7.58-17.33,2.38c-4.17-2.38-5.17-8.52-5.19-13.1q-.25-69.91-.3-89.39a1.49,1.49,0,0,0-.82-1.31,150.79,150.79,0,0,1-28.7-18.79q-59.05-48.83-58.48-127.68.43-58.8.33-105.59c-.12-47,23-91.07,60.45-118.63a143,143,0,0,1,85.42-28.57Q761.27,592.57,812.49,592.94Z"/><path class="cls-6" d="M1227.3,1000.93a166.36,166.36,0,0,0-3.42-40.89,1.66,1.66,0,0,1,.44-1.51c16.82-17.15,27.43-37.52,29.64-61.39,2.84-30.49-11.52-62-32.29-84.59a327.89,327.89,0,0,0-44.18-39.93,1.85,1.85,0,0,1-.52-2.33q42.29-82.5-.91-164.28a1.14,1.14,0,0,1,.19-1.31l11.1-11.52q66.63-.75,88.54-.15,39.64,1.1,74.56,24.68,52,35.12,62.79,94.51,2.85,15.64,2.63,51.95c-.28,46.05.32,70.12-.74,96.93-1.78,45.3-23.47,85.88-59.22,113-25.48,19.35-56.81,27.64-89.39,27.78Q1243.51,1002,1227.3,1000.93Z"/><path class="cls-4" d="M1064.24,938.9l9.5,7.52a68,68,0,0,0,10,6.78q32.15,16.9,67.94,8.59c28.43-6.58,54.69-20.13,67.9-47.34,8.33-17.12,9.33-37.86,6.61-57q-3.43-24.24-24.6-35.51-23.75-12.65-48.31-5a133.66,133.66,0,0,0-22.3,8.91q-18.76,9.87-27.82,13.82-17.21-18.82-41.46-21.3c-23.92-2.45-44.91,6.27-61,23.84a.79.79,0,0,1-1.12.05l-.07-.07Q982.88,822.82,956.72,819q-34.2-5-57.72,18.63-1.32-.87-5.38.78a1.86,1.86,0,0,1-1.64-.1,317.18,317.18,0,0,0-38.72-19.14Q831,810,807,817.92q-27.32,9-33,37.22c-6.16,30.39.63,60.79,23.17,82.34,12.8,12.23,34,21.13,51.21,24.94q30.08,6.69,57.26-3.91c7-2.71,15.49-7.51,20.51-12a83.67,83.67,0,0,1,10.13-8.12c-4,27.36-28.34,42-53.82,43.91a7.77,7.77,0,0,1-2.15-.14q-1.25-.25-11.3-4.34a91.06,91.06,0,0,0-44.55-6.54l-9.19,1a4.54,4.54,0,0,1-2.22-.32,101.91,101.91,0,0,1-37.24-26.37c-32.14-36.46-24.6-86,4.17-121.44a230.15,230.15,0,0,1,47.93-44.33,1.14,1.14,0,0,1,1.57.27C840.13,795,852.17,809.71,868,819.5q4.68,2.88,8.49-.17a3,3,0,0,0,.5-4.2,3,3,0,0,0-.67-.62,144.71,144.71,0,0,1-55.27-70.34Q802.84,695.8,817.36,645a146.83,146.83,0,0,1,16.78-38.15,41.07,41.07,0,0,1-1.29,17.35q-2.86,27.93,0,49.11,2.92,21.81,14.33,44.82c18.34,37,53.42,64.79,92.57,76.76,27.24,8.32,57.93,13.07,86.77,8.22q9.45-1.58,24.44-5a144.46,144.46,0,0,0,55.91-26.18c46.81-35.31,68.57-89,59-146.81l-.68-19.86a160.39,160.39,0,0,1,23.73,78.66c.76,21.45-3.25,41.48-10.59,61.54-10.5,28.75-30.13,51.54-55.36,69.08a2.8,2.8,0,0,0-.69,3.91,2.51,2.51,0,0,0,.52.56l.44.36a6,6,0,0,0,6.32.83A38.76,38.76,0,0,0,1136,816a154.84,154.84,0,0,0,34.24-35.72,1.36,1.36,0,0,1,1.88-.35l0,0A339.67,339.67,0,0,1,1208,810.17c15.59,15.1,28.7,35.37,34.28,55.7,8.77,32-.8,65.21-26.13,87.07-9,7.75-19.83,15.7-30.93,18.86a5.65,5.65,0,0,1-2.35.19q-6.15-.75-15-1.29c-17.75-1.08-32.58,4.46-48.56,11.5a4.27,4.27,0,0,1-2.39.33C1091.82,979,1068.29,965.71,1064.24,938.9Z"/><ellipse class="cls-1" cx="936.41" cy="640.16" rx="20.39" ry="22.01" transform="translate(-67.37 111.87) rotate(-6.6)"/><ellipse class="cls-1" cx="1063.49" cy="640.23" rx="21.81" ry="20.72" transform="translate(401.13 1690.08) rotate(-88.8)"/><path class="cls-1" d="M1000.93,658.75c36.48.48,72.64,24.31,76.59,62.59,3.08,29.78-16.33,56.28-44,66.26a102.41,102.41,0,0,1-68.57-.9C937.57,776,918.86,749,922.73,719.32,927.68,681.14,964.43,658.27,1000.93,658.75Zm-1.21,125.38c21.71.11,46.61-8.12,58.83-26.32q19.77-29.4,1.23-59.48c-12.65-20.48-36.29-30.4-59.43-30.52s-46.88,9.51-59.75,29.87q-18.86,29.87.56,59.48C953.2,775.49,978,784,999.72,784.13Z"/><path class="cls-3" d="M1000.35,667.81c23.14.12,46.78,10,59.43,30.52q18.54,30.07-1.23,59.48c-12.22,18.2-37.12,26.43-58.83,26.32s-46.52-8.64-58.56-27q-19.42-29.62-.56-59.48C953.47,677.32,977.24,667.67,1000.35,667.81Zm0,82.27a21.89,21.89,0,0,0,17.21,8.66q19.14.81,28.79-15.37c2.8-4.7,4.11-12.66-3.65-12.94a2.09,2.09,0,0,0-2,1.3c-1.72,4.29-2.77,8.29-5.38,10.83-9.89,9.61-23.22,11.21-30.21-3.36a2.5,2.5,0,0,1-.23-.93l-.27-15.09a1.76,1.76,0,0,1,1.5-1.78c12.58-1.93,26.74-10.34,25.31-24.6-.85-8.38-9.26-14-16.73-16.07-14.52-4.05-34.35-3.19-43.63,10.31q-3.33,4.86-2,11.82c2.17,11.42,16,16,25.42,18.94a1.37,1.37,0,0,1,1,1.23c.29,4.85.8,14.72-2.47,19.35-6.23,8.87-16.29,9.54-24.68,3.51q-5.87-4.2-9.14-13a3.57,3.57,0,0,0-4.59-2.11,3.33,3.33,0,0,0-.89.48l-.06,0a6,6,0,0,0-2,7Q960,758.86,979.81,759c7.83,0,14.74-3,19.37-8.94a.76.76,0,0,1,1.06-.11A.8.8,0,0,1,1000.37,750.08Z"/><path class="cls-1" d="M1000.37,750.08a.76.76,0,0,0-1.07-.14l-.12.12c-4.63,5.93-11.54,9-19.37,8.94q-19.81-.13-28.18-20.72a6,6,0,0,1,2-7l.06,0a3.58,3.58,0,0,1,5,.74,3.64,3.64,0,0,1,.48.89q3.29,8.83,9.14,13c8.39,6,18.45,5.36,24.68-3.51,3.27-4.63,2.76-14.5,2.47-19.35a1.37,1.37,0,0,0-1-1.23c-9.47-2.89-23.25-7.52-25.42-18.94q-1.3-7,2-11.82c9.28-13.5,29.11-14.36,43.63-10.31,7.47,2.07,15.88,7.69,16.73,16.07,1.43,14.26-12.73,22.67-25.31,24.6a1.76,1.76,0,0,0-1.5,1.78l.27,15.09a2.5,2.5,0,0,0,.23.93c7,14.57,20.32,13,30.21,3.36,2.61-2.54,3.66-6.54,5.38-10.83a2.09,2.09,0,0,1,2-1.3c7.76.28,6.45,8.24,3.65,12.94q-9.66,16.17-28.79,15.37A21.89,21.89,0,0,1,1000.37,750.08Z"/><path class="cls-2" d="M899,837.65a60.63,60.63,0,0,0-13.43,40.66.77.77,0,0,1-.75.79l-.19,0a104.34,104.34,0,0,1-22.33-8q-12.81-6.32-13.54-19.66c-.22-3.82-1.21-6.54-4.87-6.9a3.54,3.54,0,0,0-3.89,2.91,25.5,25.5,0,0,0,.32,9.42c5.29,23.76,34.4,29.67,54.73,33.75,14.25,2.86,27.56,9.15,35.71,21.76q7.41,11.49,5.43,25.94a83.67,83.67,0,0,0-10.13,8.12c-5,4.53-13.55,9.33-20.51,12q-27.18,10.61-57.26,3.91c-17.2-3.81-38.41-12.71-51.21-24.94-22.54-21.55-29.33-52-23.17-82.34q5.73-28.2,33-37.22,24-7.92,46.31,1.27A317.18,317.18,0,0,1,892,838.33a1.86,1.86,0,0,0,1.64.1Q897.69,836.78,899,837.65Z"/><path class="cls-2" d="M1064.24,938.9q-3.37-16.39,7.15-29.71c15.61-19.78,39-17.6,65.4-27.73q20-7.69,23.83-30.06a6.13,6.13,0,0,0-3.25-6.5l-.3-.16a3.94,3.94,0,0,0-5.3,1.71,3.45,3.45,0,0,0-.25.63c-.94,3-.5,5.85-1.45,9-4.7,15.6-22,19.39-35.58,22.83a.6.6,0,0,1-.72-.44.76.76,0,0,1,0-.15q.51-21.84-10.56-38.56,9.06-3.94,27.82-13.82a133.66,133.66,0,0,1,22.3-8.91q24.57-7.66,48.31,5,21.16,11.28,24.6,35.51c2.72,19.1,1.72,39.84-6.61,57-13.21,27.21-39.47,40.76-67.9,47.34q-35.81,8.31-67.94-8.59a68,68,0,0,1-10-6.78Z"/><path class="cls-7" d="M1069.87,829.17q4.68,20.67-.35,38.16c-5.83,20.18-19.55,44.09-33.54,58.8a132.3,132.3,0,0,1-36.92,27.41q-26.13,13-53,.35a1.79,1.79,0,0,1-1-1.17l-1.38-5c9.86-34.83-15.33-61.61-48-66.26a1.16,1.16,0,0,1-1-1.1q-1.05-31.26,22.2-45.59c22.52-13.91,52.86-8.73,71.63,8.87a141.44,141.44,0,0,1,10.18,10.52,2.32,2.32,0,0,0,3.28.21,1.42,1.42,0,0,0,.24-.25,122.18,122.18,0,0,1,9.15-9.56Q1036.65,820.74,1069.87,829.17ZM946.05,854.46a3.53,3.53,0,0,0,1.28-4.84l-.06-.09q-4.74-7.63-15.37-6.73c-9.33.8-17.8,4.82-22.43,13.59a19.5,19.5,0,0,0,.2,19.71c3,5.45,7.54,9.14,13.69,7.35a5.76,5.76,0,0,0,4.15-5.05l.9-10.4a3.93,3.93,0,0,1,.6-1.76q4.05-6.51,8.09-8.06C942.32,856.15,945.3,854.92,946.05,854.46Z"/><path class="cls-8" d="M943.73,947.72l1.38,5a1.79,1.79,0,0,0,1,1.17q26.83,12.68,53-.35A132.3,132.3,0,0,0,1036,926.13c14-14.71,27.71-38.62,33.54-58.8q5-17.49.35-38.16c25.73,6.08,35.85,25.48,35.39,50.28A1.58,1.58,0,0,1,1104,881a75.69,75.69,0,0,0-24.87,9.55c-26.85,16-31.38,46.77-15.95,72.07a1.77,1.77,0,0,1-.24,2.15,196.67,196.67,0,0,1-61.78,43.76,2.59,2.59,0,0,1-2.18,0q-32.1-15.36-61.53-42.71a2.3,2.3,0,0,1-.53-2.62Z"/><path class="cls-5" d="M946.05,854.46c-.75.46-3.73,1.69-8.95,3.72q-4,1.55-8.09,8.06a3.93,3.93,0,0,0-.6,1.76l-.9,10.4a5.76,5.76,0,0,1-4.15,5.05c-6.15,1.79-10.66-1.9-13.69-7.35a19.5,19.5,0,0,1-.2-19.71c4.63-8.77,13.1-12.79,22.43-13.59q10.62-.9,15.37,6.73a3.54,3.54,0,0,1-1.12,4.88Z"/><path class="cls-4" d="M784,965.57l17.9,11.78a.55.55,0,0,1,.16.76.61.61,0,0,1-.21.18A61.57,61.57,0,0,0,782,994.44a.66.66,0,0,1-1.18-.47l2.43-28.06a.47.47,0,0,1,.51-.42A.63.63,0,0,1,784,965.57Z"/><path class="cls-4" d="M1196.37,977.68a.64.64,0,0,1-.25-.86.59.59,0,0,1,.29-.27A85.36,85.36,0,0,0,1215,965.44a.76.76,0,0,1,1.24.52l2.69,27.87a.64.64,0,0,1-.56.72.63.63,0,0,1-.56-.21A85.5,85.5,0,0,0,1196.37,977.68Z"/><path class="cls-3" d="M1093.18,986.05q-12.69,26.75-31.29,41.37c-26.61,20.92-61.9,26.4-93.9,16.24-22.43-7.12-39.58-21.93-52.09-41.06a90.1,90.1,0,0,1-4.15-8.38,45.67,45.67,0,0,0-4.72-8.05,83.32,83.32,0,0,0,22.22-13.81,1,1,0,0,1,1.27,0c18.15,16.41,39.46,32.67,62.05,43.39,7.48,3.54,11.14,1.94,19-2.06a224,224,0,0,0,57.88-42.35.69.69,0,0,1,1,0l0,.06a39.27,39.27,0,0,0,7.37,6.71A84.54,84.54,0,0,0,1093.18,986.05Z"/><path class="cls-2" d="M924.33,1106a29.07,29.07,0,0,0-8.26,3.76q-3,2-12.07,2.11a3.67,3.67,0,0,0-1.21.21l-5.38,1.85a57.23,57.23,0,0,0,8.47-31.29,70.33,70.33,0,0,0-40.3-61.94q-18.08-8.52-36.41-3.9a24.48,24.48,0,0,1-1.17-3.92,40.48,40.48,0,0,0-1-4,192.12,192.12,0,0,0-11.23-26.7c28.07-7.32,56.84,3.09,78,22.15C920.11,1028.08,938.22,1070.64,924.33,1106Z"/><path class="cls-2" d="M1182.79,982.39a130.92,130.92,0,0,0-10.25,35.63c-18.74-6.47-38.4-.07-53,12.58-23.29,20.12-34,54.58-17,82.46l-13-1.75a2,2,0,0,1-.49-.14l-13.33-5.36a63,63,0,0,1-4.79-31q3.44-35.65,28-63.4a98.17,98.17,0,0,1,44.82-28.65Q1163.75,976.5,1182.79,982.39Z"/><path class="cls-4" d="M815.74,982.2A192.12,192.12,0,0,1,827,1008.9a40.48,40.48,0,0,1,1,4,24.48,24.48,0,0,0,1.17,3.92q-25.51,9.91-30.22,37.92a61.3,61.3,0,0,0,3.27,33.1c10,25.63,34.08,45.62,61.93,44q19.56-1.12,33.26-17.91l5.38-1.85a3.67,3.67,0,0,1,1.21-.21q9.07-.12,12.07-2.11a29.07,29.07,0,0,1,8.26-3.76c-4.75,14-13.76,23.93-25.81,33-37.42,28.27-84.77,3.76-108.83-29.74-18.59-25.89-26.28-60.48-13.53-90.58C782.75,1003.13,799,987.19,815.74,982.2Z"/><path class="cls-4" d="M1075.63,1105.81l13.33,5.36a2,2,0,0,0,.49.14l13,1.75q14.87,20,38.74,18.86c14-.66,27.46-7.11,37.64-16.61,20.89-19.51,31.85-53.78,15.65-79.65a42.7,42.7,0,0,0-22-17.64,130.92,130.92,0,0,1,10.25-35.63,41.88,41.88,0,0,1,7.52,2.86c28.68,14.59,41.61,40.82,39.21,73-2.88,38.52-29.88,72.74-64.69,87.26q-12.45,5.19-22.9,5.67C1113.16,1152.43,1084.77,1133.67,1075.63,1105.81Z"/><path class="cls-2" d="M907,986.17a45.67,45.67,0,0,1,4.72,8.05,90.1,90.1,0,0,0,4.15,8.38c12.51,19.13,29.66,33.94,52.09,41.06,32,10.16,67.29,4.68,93.9-16.24q18.6-14.63,31.29-41.37l14,4.14a.43.43,0,0,1,.31.52.51.51,0,0,1-.15.23c-32.48,25.7-52,67.31-43.62,108.84l-3.44-.24a1.68,1.68,0,0,0-1.54.8c-15,24.47-60.57,23.49-84.63,19.36-10.14-1.76-22.26-6.2-29.07-14.52-2.42-3-4.17-8.31-7.66-12.07,4.49-40-14.66-77.18-45.13-102a.43.43,0,0,1,0-.6.52.52,0,0,1,.2-.14Z"/><path class="cls-1" d="M897.41,1113.91q-13.7,16.78-33.26,17.91c-27.85,1.6-51.9-18.39-61.93-44a61.3,61.3,0,0,1-3.27-33.1q4.71-28,30.22-37.92,18.33-4.62,36.41,3.9a70.33,70.33,0,0,1,40.3,61.94A57.23,57.23,0,0,1,897.41,1113.91Zm-66.9-87.07a34.17,34.17,0,0,0-19.74,18.59c-3.61,8-4.65,17.53-3,27.34,3.32,19.65,16.92,37.64,34.54,45.67,9.87,4.48,20.17,5.46,29.25,2.77,11.6-3.45,20.22-12.59,23.66-25.09a51.64,51.64,0,0,0-.53-27.61,64.11,64.11,0,0,0-14.35-25.64C866.22,1027.45,846.54,1021.12,830.51,1026.84Z"/><path class="cls-1" d="M1172.54,1018a42.7,42.7,0,0,1,22,17.64c16.2,25.87,5.24,60.14-15.65,79.65-10.18,9.5-23.61,16-37.64,16.61q-23.88,1.14-38.74-18.86c-17-27.88-6.25-62.34,17-82.46C1134.14,1018,1153.8,1011.55,1172.54,1018Zm-66.73,80.74c3.5,10.23,10.62,17.9,20,21.6a38.59,38.59,0,0,0,24.7.79c15.82-4.47,30-17.49,37.3-34.22a56.53,56.53,0,0,0,4.64-29c-1.14-9.6-5.11-17.94-11.37-23.87a33.16,33.16,0,0,0-11.42-7.08c-10.32-3.77-22.45-2.52-33.77,3.47-16.48,8.74-28.83,26.2-31.8,45A48.89,48.89,0,0,0,1105.81,1098.76Z"/><path class="cls-5" d="M895.22,1096.12q-17.64,1.39-31.29-7.08-12.36-7.66-21.11-22.27-11.67-19.45-12.31-39.93c16-5.72,35.71.61,49.83,16a64.11,64.11,0,0,1,14.35,25.64A51.64,51.64,0,0,1,895.22,1096.12Z"/><path class="cls-5" d="M1169.68,1026.94q-4.18,27.39-18.15,47.49-10.1,14.55-27.85,20.18a87.75,87.75,0,0,1-9,1.63,34.75,34.75,0,0,0-8.85,2.52,48.89,48.89,0,0,1-1.7-23.39c3-18.76,15.32-36.22,31.8-45C1147.23,1024.42,1159.36,1023.17,1169.68,1026.94Z"/><path class="cls-4" d="M830.51,1026.84q.63,20.48,12.31,39.93,8.76,14.61,21.11,22.27,13.65,8.48,31.29,7.08c-3.44,12.5-12.06,21.64-23.66,25.09-9.08,2.69-19.38,1.71-29.25-2.77-17.62-8-31.22-26-34.54-45.67-1.65-9.81-.61-19.33,3-27.34A34.17,34.17,0,0,1,830.51,1026.84Z"/><path class="cls-4" d="M1105.81,1098.76a34.75,34.75,0,0,1,8.85-2.52,87.75,87.75,0,0,0,9-1.63q17.76-5.64,27.85-20.18,14-20.1,18.15-47.49a33.16,33.16,0,0,1,11.42,7.08c6.26,5.93,10.23,14.27,11.37,23.87a56.53,56.53,0,0,1-4.64,29c-7.29,16.73-21.48,29.75-37.3,34.22a38.59,38.59,0,0,1-24.7-.79C1116.43,1116.66,1109.31,1109,1105.81,1098.76Z"/><path class="cls-4" d="M937.42,1093.11c3.49,3.76,5.24,9.12,7.66,12.07,6.81,8.32,18.93,12.76,29.07,14.52,24.06,4.13,69.66,5.11,84.63-19.36a1.68,1.68,0,0,1,1.54-.8l3.44.24a84.72,84.72,0,0,0,19.9,36.43.24.24,0,0,1,0,.34.23.23,0,0,1-.19.07,1109.88,1109.88,0,0,0-166.42-.24.39.39,0,0,1-.42-.36.38.38,0,0,1,.1-.29A93.79,93.79,0,0,0,937.42,1093.11Z"/><ellipse class="cls-6" cx="528.29" cy="1245.74" rx="30.18" ry="29.43" transform="translate(-237.75 130.33) rotate(-11.5)"/><rect class="cls-6" x="448.81" y="1333.22" width="158.18" height="58.05" rx="27.66" transform="translate(-837.08 1883) rotate(-89.7)"/><path class="cls-6" d="M842.37,1301.91a.52.52,0,0,0,.71.19.48.48,0,0,0,.11-.09c11.34-11,23.85-17.61,40.09-17.26,18.3.41,35,10.1,42.84,26.59,6.22,13,7.68,27.77,7.66,41.56q0,43.29.06,47.57.33,17-2.25,23.53c-9.09,22.76-43.65,23.61-53.42,1.06q-2.32-5.37-2.25-17.08.12-17.1-.1-46.15c0-6-.7-12.44-5-17-5.6-6-15.06-5.55-21.24-.87q-7.1,5.38-7.41,15.92-.31,11.17-.13,44.33.08,14.19-2.25,19.71c-9.5,22.43-43.63,24-53.84,1.22q-2.16-4.83-2.2-17.41-.22-98.62-.29-152.27c0-11,.92-20.48,9.94-28,14.57-12.1,38.12-7.88,46.2,9.74q2.42,5.3,2.39,20.56-.07,32.79,0,42.35A3.51,3.51,0,0,0,842.37,1301.91Z"/><path class="cls-6" d="M1242.34,1338.15a2,2,0,0,0-2-2h0q-18.11,0-22.82-15.84c-5.28-17.65,4.12-35.28,23.85-35.44a1.39,1.39,0,0,0,1.39-1.36c.24-7.23-.07-14.08,2.2-19.2,4.82-10.95,16.24-15,27.73-15.07,14.2-.06,26.35,7.56,27,22.78q.48,10.25.61,12.1a1,1,0,0,0,1,.94c12.36-.37,24.34,1.24,30.39,12.87,7.06,13.62,1.09,33.77-15.1,36.82a61.1,61.1,0,0,1-16,.85.85.85,0,0,0-.92.78v.06q-.45,22.63.1,38.52c.27,8.31,6.89,11.9,14.55,11.63,8.87-.31,16.57.37,21.89,8.81,9.52,15.12,4,36-14.06,42.39-10.94,3.88-27.49,4.65-39.15,3-27.85-3.95-40.63-24.52-40.67-51.38Q1242.36,1353.55,1242.34,1338.15Z"/><path class="cls-6" d="M1117.44,1283.88c.24-3.64-.27-9.48.17-12.13q3-18.24,22.31-21.88c13.46-2.52,30.36,3.25,33.58,17.94a56,56,0,0,1,1,16,1.23,1.23,0,0,0,1.14,1.31h.16c14.83-1,29.82,4.21,32.38,20.87,1.92,12.67-4.65,27-18.24,28.81a64.19,64.19,0,0,1-14.82.44.91.91,0,0,0-1,.83v.07q-.18,12.87-.1,33.59c0,6.36.66,10.38,1.89,12,4,5.33,7.73,5.35,15,4.84q20.23-1.38,24,19.61a29.65,29.65,0,0,1-1.5,14.55c-6.42,19.12-29.84,20.94-46.61,21-28.46.06-48.69-15.57-48.82-45.4q-.24-52.41-.36-59.58a.82.82,0,0,0-.83-.81h0c-20.56.68-30.11-17.35-24-35.22q4.85-14.14,23.59-15.63A1.27,1.27,0,0,0,1117.44,1283.88Z"/><path class="cls-6" d="M1032,1427.3l-3.32,3.85a4.51,4.51,0,0,1-.8.7q-18.42,12.17-39.65,9.36c-25.94-3.42-42.35-20.9-40.55-47.44,2.49-36.91,42.34-46.3,72-44.3,6.09.43,11.37-2.53,9.48-9.82-3.44-13.23-21.94-12.6-30.83-6.91-10.94,7-20.17,12.78-32.31,6.81-13.19-6.49-15.51-23.3-7.37-34.59,11.25-15.65,34.69-20.55,52.94-20.91,24.58-.49,46,4.6,60.88,24.31,10.24,13.59,13.26,32.16,13.24,50.05q0,21.09.31,52.79a63,63,0,0,1-.68,9.29c-3.63,25.21-41.62,27.8-52,7a.81.81,0,0,0-1.1-.36A.7.7,0,0,0,1032,1427.3Zm-2.67-45.36a4.48,4.48,0,0,0-3.22-2.54q-12.34-2.37-21.55,3.29c-9.07,5.58-8.31,19.49,2.65,22C1020.62,1407.71,1035.87,1396.25,1029.32,1381.94Z"/><path class="cls-6" d="M1404,1435.44c-2.42-1.33-6.06-1.94-8.51-3.25-25-13.47-38.13-46.15-43.46-72.62q-4.17-20.67-6.76-41.42-.35-2.82-.46-8.63c-.31-14.89,12.51-23.83,26.13-25.23,17.31-1.78,30.79,6.9,32.21,25a499.5,499.5,0,0,0,7.28,55.89c1.21,6.25,6.39,16.68,14,16.51,11.4-.25,13.58-16,15.15-26.26q2.81-18.46,4.49-41.3c.51-6.84,1.37-13.55,5.31-19.05q7.35-10.24,22.05-10.74c14.81-.51,27.47,6.3,30.25,21.75q.67,3.87-1,20.86a306.34,306.34,0,0,1-26.12,97.57q-5,10.82-17.67,31.72a181.2,181.2,0,0,1-35.33,42.06c-16.21,14.21-39.4,25.24-56.72,5.5-10.08-11.48-7.94-29.93,5.71-37.72,12.91-7.38,25.32-15.33,34-28.45a1.56,1.56,0,0,0-.44-2.17Z"/><path class="cls-6" d="M733.25,1351.31c23-.61,39,17.06,36.25,40.09-5.48,46-74.73,55.91-108.76,48.73-41.73-8.83-73.69-40.6-82.06-82.3-13.9-69.18,24-134.11,97.12-141,29.24-2.77,65.07,4.92,84.57,26.85,14.92,16.8,11,40.29-6.35,53.75-9.23,7.21-20.84,10.18-31.7,5.6-7.28-3.09-14.6-8.08-21.59-9.76q-31.14-7.47-42.48,22.22c-4.4,11.54-1.92,28.85,6.77,39q14.31,16.72,40.12,9.08C712.93,1361.26,724,1351.55,733.25,1351.31Z"/><path d="M498.14,1485.61c0-2.55,1.74-3.13,3.44-3.13h1.86c2,0,2.9.78,3.55,2.9l5.54,17.87h.07l5.46-17.87c.66-2.12,1.58-2.9,3.56-2.9h1.77c1.71,0,3.45.58,3.45,3.13v22.63c0,1.59-.78,3.1-2.83,3.1s-2.82-1.51-2.82-3.1V1491h-.08l-5.92,18.49a2.9,2.9,0,0,1-5.41,0L503.86,1491h-.08v17.25c0,1.59-.77,3.1-2.82,3.1s-2.82-1.51-2.82-3.1Z"/><path d="M532.76,1486.7c0-2.83,1.47-3.72,3.71-3.72h14.89c1.86,0,3.21.55,3.21,2.56s-1.35,2.55-3.21,2.55H539.1v6h10.75c1.67,0,3,.47,3,2.44s-1.31,2.44-3,2.44H539.1v6.73h12.57c1.86,0,3.21.54,3.21,2.55s-1.35,2.55-3.21,2.55h-15.2c-2.24,0-3.71-.89-3.71-3.71Z"/><path d="M559,1486.19c0-2.63,1.28-3.71,4-3.71a3.5,3.5,0,0,1,3.17,1.66l11.1,17.91h.08v-16.51a3.06,3.06,0,1,1,6.11,0v21.85c0,2.52-1.08,3.95-3.75,3.95-2,0-2.67-.43-3.48-1.71l-11-17.4h-.07v16a3.06,3.06,0,0,1-6.12,0Z"/><path d="M596,1488.32h-6c-1.82,0-3.29-.93-3.29-2.67s1.47-2.67,3.29-2.67h18.33c1.82,0,3.29.93,3.29,2.67s-1.47,2.67-3.29,2.67h-6v19.85a3.17,3.17,0,1,1-6.34,0Z"/><path d="M619.14,1484.42a2.85,2.85,0,0,1,3.09-1.94h1.51a3.13,3.13,0,0,1,3.4,2.32l7.66,21.32a8.36,8.36,0,0,1,.62,2.43,2.89,2.89,0,0,1-3,2.79,2.73,2.73,0,0,1-2.86-1.74L628,1505H617.74l-1.66,4.65c-.42,1.23-1.31,1.74-2.82,1.74a2.71,2.71,0,0,1-2.94-2.79,8.69,8.69,0,0,1,.62-2.43Zm3.83,4.95h-.08l-3.75,11.18h7.42Z"/><path d="M638.71,1485.65a3.18,3.18,0,0,1,6.35,0v19.85h10.59c1.82,0,3.29.92,3.29,2.67s-1.47,2.66-3.29,2.66H642.43c-2.25,0-3.72-.89-3.72-3.71Z"/><path d="M701,1508.32c-.58,2.2-1.51,3-3.83,3s-3.25-1-3.79-3.14l-4.14-17h-.07l-4.14,17c-.51,2.13-1.4,3.14-3.79,3.14s-3.25-.82-3.83-3l-5.46-21.16a7.38,7.38,0,0,1-.31-1.82,2.87,2.87,0,0,1,3.06-2.86c1.62,0,2.59.74,3,2.59l3.75,18.49h.08l4.33-18.72c.35-1.55,1-2.36,3.33-2.36,2.66,0,3.21,1.28,3.59,3l4.22,18.06H697l3.79-18.49c.38-1.85,1.35-2.59,2.86-2.59a2.87,2.87,0,0,1,3.06,2.86,7.38,7.38,0,0,1-.31,1.82Z"/><path d="M710.16,1486.7c0-2.83,1.47-3.72,3.71-3.72h14.9c1.85,0,3.21.55,3.21,2.56s-1.36,2.55-3.21,2.55H716.5v6h10.76c1.66,0,3,.47,3,2.44s-1.32,2.44-3,2.44H716.5v6.73h12.58c1.85,0,3.21.54,3.21,2.55s-1.36,2.55-3.21,2.55H713.87c-2.24,0-3.71-.89-3.71-3.71Z"/><path d="M736.5,1485.65a3.18,3.18,0,0,1,6.35,0v19.85h10.6c1.81,0,3.28.92,3.28,2.67s-1.47,2.66-3.28,2.66H740.22c-2.25,0-3.72-.89-3.72-3.71Z"/><path d="M760.14,1485.65a3.17,3.17,0,0,1,6.34,0v19.85h10.6c1.82,0,3.29.92,3.29,2.67s-1.47,2.66-3.29,2.66H763.85c-2.24,0-3.71-.89-3.71-3.71Z"/><path d="M783.66,1486.19c0-2.63,1.27-3.71,4-3.71a3.48,3.48,0,0,1,3.17,1.66l11.11,17.91H802v-16.51a3.06,3.06,0,1,1,6.11,0v21.85c0,2.52-1.08,3.95-3.75,3.95-2,0-2.67-.43-3.48-1.71l-11-17.4h-.08v16a3.06,3.06,0,1,1-6.11,0Z"/><path d="M814,1486.7c0-2.83,1.47-3.72,3.72-3.72h14.89c1.86,0,3.21.55,3.21,2.56s-1.35,2.55-3.21,2.55H820.37v6h10.75c1.66,0,3,.47,3,2.44s-1.32,2.44-3,2.44H820.37v6.73h12.57c1.86,0,3.21.54,3.21,2.55s-1.35,2.55-3.21,2.55h-15.2c-2.25,0-3.72-.89-3.72-3.71Z"/><path d="M855,1494.7c5.8,1.32,7.27,4.76,7.27,8,0,5-3.79,8.78-11.45,8.78-8,0-11.64-4-11.64-7a2.55,2.55,0,0,1,2.67-2.63c3.44,0,2.55,5,9,5,3.29,0,5.11-1.82,5.11-3.68,0-1.12-.54-2.35-2.71-2.9l-7.16-1.81c-5.76-1.47-6.8-4.65-6.8-7.62,0-6.19,5.72-8.51,11.1-8.51,5,0,10.79,2.78,10.79,6.49a2.63,2.63,0,0,1-2.9,2.52c-2.94,0-2.4-4.14-8.32-4.14-2.94,0-4.56,1.35-4.56,3.29s2.32,2.55,4.33,3Z"/><path d="M881.45,1494.7c5.8,1.32,7.27,4.76,7.27,8,0,5-3.79,8.78-11.45,8.78-8,0-11.64-4-11.64-7a2.55,2.55,0,0,1,2.67-2.63c3.44,0,2.55,5,9,5,3.29,0,5.11-1.82,5.11-3.68,0-1.12-.54-2.35-2.71-2.9l-7.16-1.81c-5.76-1.47-6.8-4.65-6.8-7.62,0-6.19,5.72-8.51,11.1-8.51,5,0,10.79,2.78,10.79,6.49a2.63,2.63,0,0,1-2.9,2.52c-2.94,0-2.4-4.14-8.32-4.14-2.94,0-4.56,1.35-4.56,3.29s2.32,2.55,4.33,3Z"/><path d="M919.78,1494.7c5.81,1.32,7.28,4.76,7.28,8,0,5-3.79,8.78-11.45,8.78-8.05,0-11.65-4-11.65-7a2.55,2.55,0,0,1,2.67-2.63c3.45,0,2.56,5,9,5,3.28,0,5.1-1.82,5.1-3.68,0-1.12-.54-2.35-2.7-2.9l-7.16-1.81c-5.76-1.47-6.81-4.65-6.81-7.62,0-6.19,5.73-8.51,11.1-8.51,5,0,10.79,2.78,10.79,6.49a2.63,2.63,0,0,1-2.9,2.52c-2.94,0-2.39-4.14-8.31-4.14-2.94,0-4.57,1.35-4.57,3.29s2.32,2.55,4.34,3Z"/><path d="M938.51,1488.32h-6c-1.82,0-3.29-.93-3.29-2.67s1.47-2.67,3.29-2.67h18.34c1.82,0,3.29.93,3.29,2.67s-1.47,2.67-3.29,2.67h-6v19.85a3.17,3.17,0,1,1-6.34,0Z"/><path d="M961.64,1484.42a2.86,2.86,0,0,1,3.09-1.94h1.51a3.14,3.14,0,0,1,3.41,2.32l7.66,21.32a8.69,8.69,0,0,1,.62,2.43,2.9,2.9,0,0,1-3,2.79,2.73,2.73,0,0,1-2.87-1.74l-1.62-4.65H960.25l-1.67,4.65c-.42,1.23-1.31,1.74-2.82,1.74a2.71,2.71,0,0,1-2.94-2.79,8.69,8.69,0,0,1,.62-2.43Zm3.83,4.95h-.08l-3.75,11.18h7.43Z"/><path d="M981.21,1486.7c0-2.83,1.47-3.72,3.72-3.72h10.56c7.54,0,9.55,4.14,9.55,7.74,0,3-1.78,6-4.79,6.69v.08c3.24.46,3.82,2.82,3.82,5.65,0,3.21.86,4.41.86,5.72,0,1.47-1.51,2.48-3,2.48-3.48,0-3.75-3.37-3.75-4.49,0-4.87-.89-6.85-4.38-6.85h-6.26v8.17a3.18,3.18,0,0,1-6.35,0Zm6.35,8.66h6.34c2.4,0,4.8-.62,4.8-3.75,0-3-1.82-3.75-4.6-3.75h-6.54Z"/><path d="M1016,1488.32h-6c-1.82,0-3.29-.93-3.29-2.67s1.47-2.67,3.29-2.67h18.33c1.82,0,3.29.93,3.29,2.67s-1.47,2.67-3.29,2.67h-6v19.85a3.17,3.17,0,1,1-6.34,0Z"/><path d="M1049.61,1494.7c5.8,1.32,7.27,4.76,7.27,8,0,5-3.79,8.78-11.45,8.78-8,0-11.64-4-11.64-7a2.55,2.55,0,0,1,2.67-2.63c3.44,0,2.55,5,9,5,3.29,0,5.11-1.82,5.11-3.68,0-1.12-.55-2.35-2.71-2.9l-7.16-1.81c-5.76-1.47-6.81-4.65-6.81-7.62,0-6.19,5.73-8.51,11.11-8.51,5,0,10.79,2.78,10.79,6.49a2.64,2.64,0,0,1-2.9,2.52c-2.94,0-2.4-4.14-8.32-4.14-2.94,0-4.57,1.35-4.57,3.29s2.33,2.55,4.34,3Z"/><path d="M1100.13,1508.32c-.58,2.2-1.51,3-3.83,3s-3.25-1-3.79-3.14l-4.14-17h-.08l-4.14,17c-.5,2.13-1.39,3.14-3.79,3.14s-3.25-.82-3.83-3l-5.45-21.16a6.94,6.94,0,0,1-.31-1.82,2.86,2.86,0,0,1,3-2.86c1.63,0,2.59.74,3,2.59l3.75,18.49h.08l4.33-18.72c.35-1.55,1-2.36,3.33-2.36,2.67,0,3.21,1.28,3.6,3l4.21,18.06h.08l3.79-18.49c.39-1.85,1.36-2.59,2.86-2.59a2.87,2.87,0,0,1,3.06,2.86,7.38,7.38,0,0,1-.31,1.82Z"/><path d="M1109.18,1485.65a3.17,3.17,0,0,1,6.34,0v22.52a3.17,3.17,0,0,1-6.34,0Z"/><path d="M1128.21,1488.32h-6c-1.82,0-3.29-.93-3.29-2.67s1.47-2.67,3.29-2.67h18.33c1.82,0,3.29.93,3.29,2.67s-1.47,2.67-3.29,2.67h-6v19.85a3.18,3.18,0,0,1-6.35,0Z"/><path d="M1147.24,1485.65a3.18,3.18,0,0,1,6.35,0v7.89h11.52v-7.89a3.18,3.18,0,0,1,6.35,0v22.52a3.18,3.18,0,0,1-6.35,0v-9.29h-11.52v9.29a3.18,3.18,0,0,1-6.35,0Z"/><path d="M1195.4,1484.42a2.87,2.87,0,0,1,3.1-1.94H1200a3.13,3.13,0,0,1,3.4,2.32l7.66,21.32a8.69,8.69,0,0,1,.62,2.43,2.89,2.89,0,0,1-3,2.79,2.72,2.72,0,0,1-2.86-1.74l-1.63-4.65H1194l-1.66,4.65c-.43,1.23-1.32,1.74-2.82,1.74a2.7,2.7,0,0,1-2.94-2.79,8.67,8.67,0,0,1,.61-2.43Zm3.83,4.95h-.07l-3.76,11.18h7.43Z"/><path d="M1239.54,1482.33c7.27,0,11.26,4.56,11.26,7.27a2.59,2.59,0,0,1-2.86,2.86c-3.68,0-2.6-5-8.4-5-4,0-7.27,3.45-7.27,9.48,0,5.07,2,9.48,7.5,9.48,5,0,4.88-5.34,7.93-5.34,1.55,0,3.1.89,3.1,2.43,0,4-4.88,8-11,8-8.7,0-13.84-5-13.84-14.58C1225.93,1489.06,1230.57,1482.33,1239.54,1482.33Z"/><path d="M1254.74,1485.65a3.18,3.18,0,0,1,6.35,0v7.89h11.53v-7.89a3.17,3.17,0,0,1,6.34,0v22.52a3.17,3.17,0,1,1-6.34,0v-9.29h-11.53v9.29a3.18,3.18,0,0,1-6.35,0Z"/><path d="M1291.07,1484.42a2.86,2.86,0,0,1,3.09-1.94h1.51a3.14,3.14,0,0,1,3.41,2.32l7.65,21.32a8.36,8.36,0,0,1,.62,2.43,2.89,2.89,0,0,1-3,2.79,2.73,2.73,0,0,1-2.86-1.74l-1.62-4.65h-10.21l-1.67,4.65c-.42,1.23-1.31,1.74-2.82,1.74a2.71,2.71,0,0,1-2.94-2.79,8.69,8.69,0,0,1,.62-2.43Zm3.83,4.95h-.08l-3.75,11.18h7.42Z"/><path d="M1314.59,1488.32h-6c-1.82,0-3.29-.93-3.29-2.67s1.47-2.67,3.29-2.67h18.34c1.82,0,3.29.93,3.29,2.67s-1.47,2.67-3.29,2.67h-6v19.85a3.17,3.17,0,1,1-6.34,0Z"/></svg>